<svg xmlns="http://www.w3.org/2000/svg" width="662.857" height="662.857" viewBox="0 0 175.381 175.381"><path d="M50.366 61.41l7.417 33.195L65.2 61.531l11.185-.16-15.956 65.106s-2.886 11.907-17.4 9.983l.081-10.023s6.485 1.203 7.918-3.548l2.746-10.283-14.998-51.184zM76.736 61.28l-.13 8.57 5.272-.04.068 45.353 10.71-.092.165-45.194 7.796-.064.029-8.363-7.796-.056-.014-9.185s.269-2.098 2.112-2.155l5.652-.06.06-10.263-4.821-.01s-12.84-.524-13.918 12.431l-.127 9.242z" fill="#fff"/><path d="M120.22 38.354c-2.683-.01-6.636.542-10.159 3.131 0 0-6.042 4.786-5.893 15.636l.007 79.906 10.758-.015.014-26.973 1.588 1.673c-.097.15 4.816 5.848 12.358 3.587 0 0 7.344-2.085 7.6-11.808l.112-23.728s-.056-4.876-6.264-8.901c0 0 5.584-1.616 6.123-8.901 0 0 .234-10.686-.475-12.184 0 0-1.821-9.928-12.679-11.119-.328-.09-1.48-.298-3.09-.304zm.3 10.254a7.01 7.01 0 012.067.327c3.345 1.063 3.217 5.258 3.217 5.258l-.042 8.448c-.383 3.26-3.756 3.954-3.756 3.954l-3.048-.013.057 9.666 3.147.014c3.359.737 3.642 3.487 3.642 3.487l-.042 20.992-.241.78c-1.843 4.28-5.698 3.104-5.698 3.104-5.074-.85-4.848-4.763-4.848-4.763l.17-45.896c.284-3.146 1.588-3.855 1.588-3.855 1.148-1.219 2.611-1.513 3.788-1.503z" fill="#f63808"/></svg>